<?xml version="1.0" standalone="no"?>
<!DOCTYPE svg PUBLIC "-//W3C//DTD SVG 20010904//EN"
 "http://www.w3.org/TR/2001/REC-SVG-20010904/DTD/svg10.dtd">
<svg version="1.0" xmlns="http://www.w3.org/2000/svg"
 width="980.000000pt" height="980.000000pt" viewBox="0 0 980.000000 980.000000"
 preserveAspectRatio="xMidYMid meet">

<g transform="translate(0.000000,980.000000) scale(0.100000,-0.100000)"
fill="#000000" stroke="none">
<path d="M4805 7897 c-140 -66 -265 -303 -321 -612 -21 -115 -30 -440 -15
-560 6 -49 22 -175 35 -280 14 -104 32 -273 40 -375 16 -186 43 -886 35 -894
-5 -5 -263 -16 -2224 -96 -1454 -59 -1373 -55 -1410 -71 -162 -70 -169 -290
-12 -371 42 -21 24 -20 2442 -117 550 -23 1046 -43 1103 -47 l102 -6 -2 -671
-3 -672 -532 -5 -531 -5 -43 -30 c-136 -96 -110 -313 44 -369 23 -9 206 -36
407 -61 419 -53 653 -84 655 -88 1 -1 10 -60 20 -130 9 -71 32 -181 51 -245
18 -64 31 -118 29 -121 -3 -2 -76 -8 -162 -13 -476 -25 -463 -81 26 -108 169
-9 208 -14 230 -29 72 -50 161 -54 240 -11 51 28 61 30 241 40 248 13 390 33
390 55 0 22 -133 42 -353 53 -86 5 -159 11 -162 13 -2 3 11 58 30 124 19 65
42 176 52 246 l17 128 30 5 c17 3 245 32 506 65 261 34 492 65 513 71 20 6 54
25 74 43 103 91 96 253 -16 332 l-43 30 -531 5 -532 5 -3 671 -2 672 122 6
c148 8 516 23 1818 76 1747 71 1665 67 1707 89 73 37 113 102 113 181 0 81
-53 163 -125 190 -16 7 -122 16 -235 21 -289 13 -3354 139 -3381 139 l-22 0 7
268 c11 424 42 826 89 1127 29 191 31 569 3 720 -27 150 -61 259 -116 371 -82
170 -189 264 -300 264 -26 0 -66 -10 -95 -23z"/>
</g>
</svg>
