<?xml version="1.0" encoding="UTF-8" standalone="no"?>
<!-- Created with Inkscape (http://www.inkscape.org/) -->

<svg
   width="151.73999"
   height="179.99997"
   viewBox="0 0 151.73999 179.99997"
   version="1.1"
   id="svg1"
   xml:space="preserve"
   inkscape:export-filename="logotelespazioscritta.svg"
   inkscape:export-xdpi="96"
   inkscape:export-ydpi="96"
   xmlns:inkscape="http://www.inkscape.org/namespaces/inkscape"
   xmlns:sodipodi="http://sodipodi.sourceforge.net/DTD/sodipodi-0.dtd"
   xmlns="http://www.w3.org/2000/svg"
   xmlns:svg="http://www.w3.org/2000/svg"><sodipodi:namedview
     id="namedview1"
     pagecolor="#ffffff"
     bordercolor="#000000"
     borderopacity="0.25"
     inkscape:showpageshadow="2"
     inkscape:pageopacity="0.0"
     inkscape:pagecheckerboard="0"
     inkscape:deskcolor="#d1d1d1"
     inkscape:document-units="px" /><defs
     id="defs1" /><g
     inkscape:label="Livello 1"
     inkscape:groupmode="layer"
     id="layer1"
     transform="translate(-351.9519,-434.02603)"><g
       id="g1"
       transform="translate(173.06469,-280.97561)"><g
         id="g2"
         transform="translate(-141.66294,275.28399)"><path
           id="path1"
           style="fill:#ffffff"
           d="m 1290.6799,479.01885 -2.2012,8.39063 c -1.2104,4.61499 -2.1992,8.8846 -2.1992,9.48828 0,0.77392 11.6713,1.175 39.5781,1.35937 l 39.5781,0.26172 -49.496,36.5 -49.4981,36.5 -1.582,6.20508 c -0.8696,3.41304 -1.5801,6.67554 -1.5801,7.25 0,0.71327 17.3697,1.04492 54.7773,1.04492 h 54.7793 l 1.7442,-6.75 c 0.9594,-3.71251 2.0113,-7.76251 2.3379,-9 l 0.5937,-2.25 h -39.6172 c -21.7891,0 -39.5925,-0.3375 -39.5625,-0.75 0.03,-0.4125 22.2116,-17.06098 49.291,-36.99609 l 49.2344,-36.2461 1.711,-6.41796 c 0.9406,-3.53015 1.7109,-6.90668 1.7109,-7.50391 0,-0.76794 -16.0457,-1.08594 -54.8008,-1.08594 z m -236.6641,0.5 -13.207,50.5 c -7.2643,27.77497 -13.5146,51.73749 -13.8887,53.25 l -0.6797,2.75 h 8.3653 8.3652 l 4.9863,-19.25 4.9864,-19.25 30.4179,-0.5 c 34.1414,-0.56121 35.7194,-0.8679 43.2578,-8.40625 5.1606,-5.16063 7.9174,-11.22486 11.6329,-25.58398 4.9936,-19.29883 3.6709,-26.83022 -5.5372,-31.50977 -3.7272,-1.89415 -5.9137,-2 -41.3164,-2 z m -544.66013,0.5 -1.10157,4.25 c -0.60641,2.3375 -1.52148,5.825 -2.0332,7.75 -0.51172,1.925 -0.93255,3.8375 -0.93555,4.25 -0.003,0.4125 9.47349,0.75 21.06055,0.75 19.59854,0 21.03001,0.12201 20.53906,1.75 -0.29026,0.9625 -5.2964,20.20002 -11.12695,42.75 -5.83055,22.54998 -10.82911,41.7875 -11.10742,42.75 -0.45338,1.568 0.36729,1.75 7.89844,1.75 h 8.40625 l 11.51757,-44.25 11.51563,-44.25 20.61328,-0.26953 20.61133,-0.27148 1.50195,-5.05664 c 0.82619,-2.78208 1.7915,-6.59866 2.14453,-8.48047 l 0.64258,-3.42188 h -50.07422 z m 202.14648,0 -42.36133,0.01 -42.36133,0.01 -13.43164,51.74024 c -7.38725,28.45709 -13.62334,52.30273 -13.85742,52.99023 -0.33607,0.98704 8.49662,1.25 41.98828,1.25 h 42.41407 l 1.85156,-7.25 c 1.01823,-3.98749 2.05415,-7.8125 2.30078,-8.5 0.3531,-0.98429 -6.78013,-1.25 -33.55274,-1.25 h -34 l 3.88868,-14.75 c 2.13919,-8.11249 3.89253,-14.8625 3.89453,-15 0.002,-0.1375 14.54159,-0.25 32.31054,-0.25 h 32.30665 l 1.85156,-7.25 c 1.01823,-3.98749 2.05415,-7.8125 2.30078,-8.5 0.35276,-0.98336 -6.4021,-1.25 -31.66016,-1.25 -17.65883,0 -32.10547,-0.30552 -32.10547,-0.67773 0,-0.37222 1.40637,-5.99723 3.12696,-12.5 l 3.1289,-11.82227 h 33.83399 33.83203 l 1.50781,-5.07812 c 0.82949,-2.79318 1.79736,-6.61819 2.15039,-8.5 z m 19.85352,0 -0.97461,3.75 c -0.53675,2.0625 -6.62962,25.37341 -13.53907,51.80274 -6.90944,26.42932 -12.5625,48.59185 -12.5625,49.25 0,0.90936 9.83263,1.19726 40.96094,1.19726 h 40.96094 l 1.08789,-4.25 c 0.59809,-2.3375 1.51595,-5.55386 2.03906,-7.14844 1.94148,-5.91814 3.73215,-5.60156 -31.61719,-5.60156 -30.54746,0 -32.53535,-0.10854 -32.04882,-1.75 1.01982,-3.44067 22.61718,-86.29561 22.61718,-86.76758 0,-0.2649 -3.80909,-0.48242 -8.46289,-0.48242 z m 100.14257,0 -2.06054,7.75 c -9.35869,35.20082 -25.15821,96.19397 -25.15821,97.1211 0,0.853 10.90192,1.08406 42.18555,0.89062 l 42.1875,-0.26172 1.78906,-7 c 0.98488,-3.84999 1.80186,-7.5625 1.81446,-8.25 0.0178,-0.97558 -7.33108,-1.25 -33.47657,-1.25 -18.42498,0 -33.4867,-0.3375 -33.4707,-0.75 0.016,-0.4125 1.7096,-7.05001 3.76367,-14.75 l 3.73438,-14 32.20117,-0.26367 32.20117,-0.26367 1.50391,-5.06446 c 0.82723,-2.78558 1.79345,-6.60451 2.14648,-8.48632 l 0.64258,-3.42188 h -31.61133 c -29.44267,0 -31.61151,-0.12006 -31.60351,-1.75 0.005,-0.9625 1.28448,-6.475 2.84179,-12.25 l 2.83008,-10.5 34.04102,-0.26367 34.04297,-0.26172 1.66015,-6.73828 c 0.914,-3.70536 1.89742,-7.52383 2.18555,-8.48633 0.49318,-1.64742 -1.96469,-1.75 -41.93359,-1.75 z m 159.57036,0 c -43.5763,0 -44.3614,0.11121 -52.54692,7.4707 -2.62245,2.3578 -5.80629,6.36747 -7.07617,8.91016 -6.01743,12.04874 -7.9875,28.12014 -4.20703,34.32031 3.9698,6.51071 5.22176,6.74461 39.13872,7.29883 32.4901,0.5309 33.9023,0.75419 33.9023,5.37891 0,1.17402 -1.1085,6.18277 -2.4629,11.1289 -1.9137,6.98863 -3.1428,9.6051 -5.5156,11.74219 l -3.0528,2.75 h -37.76363 -37.76172 l -1.85937,7.25 c -1.02221,3.9875 -2.06968,7.8125 -2.32813,8.5 -0.37099,0.98685 7.86011,1.25 39.09961,1.25 37.92904,0 39.80534,-0.0886 45.26364,-2.13086 6.681,-2.49967 12.9769,-8.33773 16.0352,-14.86914 3.3605,-7.17666 7.6177,-23.96597 7.7344,-30.5 0.1281,-7.17671 -2.2169,-11.90584 -7.4239,-14.96484 -3.2254,-1.89484 -5.5936,-2.06969 -34.2968,-2.53516 -29.05262,-0.47114 -30.91421,-0.61233 -32.25004,-2.4414 -1.83419,-2.51147 -1.80144,-3.10578 0.60547,-10.89844 3.47009,-11.23482 1.09086,-10.66016 44.07227,-10.66016 h 36.8262 l 1.5078,-5.07812 c 0.8295,-2.79318 1.7974,-6.6182 2.1504,-8.5 l 0.6426,-3.42188 z m 227.0351,0 c -32.5487,0 -35.0952,0.12895 -40.2109,2.04297 -6.7772,2.53565 -13.065,8.49617 -16.1406,15.30078 -1.8258,4.0393 -23.4727,85.17632 -23.4727,87.98047 0,0.3712 3.9482,0.67578 8.7734,0.67578 h 8.7715 l 6.0274,-23.25 6.0273,-23.25 33.9434,-0.26367 c 18.6685,-0.14498 34.4422,-0.0721 35.0527,0.16211 0.7342,0.28176 -0.8646,7.98669 -4.7246,22.76367 -3.2091,12.28571 -5.8435,22.67539 -5.8535,23.08789 -0.01,0.4125 3.9618,0.75 8.8261,0.75 h 8.8438 l 10.793,-41.75 c 7.3498,-28.42959 10.8022,-43.54459 10.8222,-47.37305 0.038,-7.29284 -2.4381,-11.66135 -8.289,-14.62695 -4.3502,-2.205 -5.1337,-2.25 -39.1895,-2.25 z m 293.1406,0 c -29.0302,0 -35.3621,0.25643 -39.2812,1.5918 -6.643,2.2635 -13.8192,9.08152 -16.9531,16.10742 -3.3033,7.40573 -18.7305,66.47321 -18.7305,71.71484 0,6.16027 3.3706,12.06152 8.3008,14.53125 4.0712,2.03947 5.3116,2.09397 40.6992,1.82813 l 36.5,-0.27344 5.3555,-2.9668 c 5.8405,-3.23497 10.1121,-7.80094 13.1484,-14.05468 3.316,-6.82983 18.1576,-64.28793 18.334,-70.97852 0.2033,-7.71308 -2.223,-12.15753 -8.3242,-15.25 -4.3492,-2.2045 -5.139,-2.25 -39.0489,-2.25 z m -83.1718,0.20899 -8.2071,0.29101 -13.2422,50.5 c -7.2831,27.77496 -13.499,51.5125 -13.8125,52.75 -0.5574,2.2002 -0.3833,2.25 7.8399,2.25 h 8.4101 l 2.0586,-7.75 c 9.4791,-35.65311 25.1602,-96.2002 25.1602,-97.15039 0,-0.83425 -2.404,-1.09599 -8.207,-0.89062 z m 77.9238,15.79687 c 28.9634,0.006 33.9023,0.62809 34.8476,4.39453 0.5536,2.20581 -11.7706,52.00702 -15.1875,61.3711 -1.0119,2.77311 -2.5614,4.78996 -4.4179,5.75 -2.343,1.21162 -8.3331,1.47216 -33.1602,1.44726 -18.7134,-0.0188 -30.968,-0.41931 -32.0488,-1.04883 -0.9743,-0.56749 -1.75,-2.20096 -1.75,-3.68554 0,-3.96602 14.8773,-60.35823 16.6387,-63.06836 3.0489,-4.69133 6.2806,-5.16616 35.0781,-5.16016 z m -412.7363,1.22852 c 19.2857,-0.18831 27.6762,0.0659 28.6464,0.87109 1.9965,1.65694 1.6917,6.16637 -1.1425,16.89453 -1.9724,7.4659 -3.1533,10.08886 -5.5137,12.25 l -3.002,2.75 h -27.3632 -27.3633 l 4.2324,-16.25 4.2305,-16.25 z m 120.9746,0.76562 h 31.0879 l 1.0566,2.32031 c 0.8197,1.79912 0.5111,4.32758 -1.3711,11.25 l -2.4277,8.92969 -35.0879,0.26367 -35.086,0.26172 2.2793,-8.28515 c 2.655,-9.64996 3.9266,-12.3124 6.5508,-13.7168 1.1852,-0.63429 13.7213,-1.02344 32.9981,-1.02344 z"
           sodipodi:nodetypes="ccssccccsscsscsscccsscccccccccssssscccsssssssccccccccccccccssccssccssccssscccccccccsssccsssssccsscccsssccccsccsccccccsscssssssscccccssssssssssccccsssssscccsssssccsssssssscccssssccsssccscssssssssscsscccccccsccscccsss" /><path
           id="path1-6"
           style="fill:#ffffff;stroke-width:0.873755"
           d="m 396.39496,439.74996 c -5.23809,0.0992 -10.34568,0.38548 -11.35022,0.63657 -1.90233,0.47547 -7.59356,7.99999 -10.61643,14.03635 -2.5536,5.09924 -6.13051,15.91936 -7.64707,23.12884 -1.65175,7.8522 -3.29138,26.03684 -2.46763,27.36963 0.34397,0.5566 1.06868,-0.72517 1.64507,-2.90796 4.03843,-15.2934 15.51598,-33.85694 30.99432,-50.12986 5.3352,-5.60902 9.53511,-10.67458 9.33316,-11.25642 -0.26256,-0.75615 -3.08361,-1.00612 -9.8912,-0.87715 z m 52.25967,15.49545 c -0.93601,0.1286 -2.25244,0.57961 -4.32953,1.40449 -16.70782,6.63546 -29.6194,15.33389 -43.99141,29.63596 -6.0521,6.02263 -12.85771,13.40834 -15.1234,16.41186 -2.26571,3.0035 -3.90847,5.46097 -3.65033,5.46097 0.25814,0 3.13188,-1.93026 6.38594,-4.28856 15.57426,-11.28726 38.03275,-20.42378 69.25168,-28.17172 3.25361,-0.80745 4.8887,-1.67732 5.08723,-2.7083 0.27893,-1.44838 -8.74375,-14.86124 -11.58063,-17.21563 -0.55779,-0.46291 -1.11355,-0.65766 -2.04955,-0.52907 z m -107.49207,14.48182 c -1.42334,-0.0167 -8.89969,15.54823 -8.89969,18.52795 0,2.95713 4.59221,8.74914 13.26842,16.73275 3.98463,3.66645 7.53024,6.66573 7.87913,6.66573 0.34895,0 -0.16869,-1.86764 -1.1485,-4.1503 -3.11368,-7.25429 -5.85488,-18.02422 -6.97291,-27.39522 -1.04698,-8.77511 -1.67391,-10.35237 -4.12645,-10.38091 z m -16.72418,43.79852 c -1.04622,-0.22141 -1.76786,0.0122 -2.18947,0.69459 -1.18863,1.92322 -2.28189,15.08858 -1.34655,16.21563 1.12573,1.35636 5.44204,0.48836 21.0264,-4.23055 l 9.89969,-2.9984 -5.08547,-1.05466 c -7.26737,-1.50869 -14.40096,-4.09668 -18.17472,-6.5941 -1.71415,-1.13436 -3.08367,-1.81106 -4.12988,-2.03251 z m 140.97455,1.93868 c -7.37557,-0.36186 -21.37475,0.4754 -34.85287,2.2458 -17.62433,2.31496 -48.53658,7.29822 -48.08368,7.75112 0.20028,0.20031 18.96375,3.0258 41.6978,6.2801 22.73405,3.25431 42.57851,5.96373 44.09719,6.02073 l 2.7612,0.10404 0.58877,-7.64533 c 1.02254,-13.26159 1.07824,-12.67533 -1.30551,-13.98514 -0.72209,-0.39678 -2.4444,-0.65077 -4.9029,-0.77135 z m -111.17819,21.30623 -3.33976,2.00351 c -6.69764,4.01756 -13.92337,9.51822 -18.0143,13.71552 l -4.18613,4.29537 1.87542,8.67095 c 1.0311,4.76895 2.24044,9.35906 2.68785,10.20006 1.5716,2.95396 4.00547,1.80573 5.55649,-2.62126 4.09732,-11.69476 8.08597,-21.52958 11.56018,-28.5079 z m 24.39676,2.4745 c -0.72145,-0.44256 0.20302,1.32682 2.0547,3.93188 14.70454,20.68728 36.06441,39.69624 53.85183,47.92327 8.63429,3.99359 9.02881,3.87121 16.33678,-5.12816 6.09192,-7.50182 7.27552,-9.84887 5.51729,-10.93555 -0.44912,-0.27758 -5.33228,-1.87463 -10.85193,-3.54793 -21.34247,-6.46996 -44.61517,-17.07641 -58.864,-26.82862 -3.70367,-2.5349 -7.32321,-4.97233 -8.04467,-5.41489 z m -14.11144,3.94213 c -0.1372,0.17595 -0.26346,0.57435 -0.40955,1.14508 -0.90376,3.53094 0.20269,22.98267 1.83797,32.30495 2.98125,16.99565 10.3786,34.127 18.04498,41.79338 0.91176,0.91172 2.32539,1.4667 3.14182,1.23383 0.81636,-0.23284 5.70157,-1.09493 10.85702,-1.91644 12.76253,-2.0337 12.82326,-2.39708 2.19634,-13.34861 -17.04661,-17.56738 -27.29381,-34.59388 -33.33402,-55.38775 -1.41541,-4.87267 -1.92287,-6.35222 -2.33456,-5.82444 z"
           sodipodi:nodetypes="ssssssssssssssssssssssssssssscccsssssscccsscscccssccsssssssssssssssss"
           inkscape:export-filename="logotelespazioSOLOLOGO.svg"
           inkscape:export-xdpi="96"
           inkscape:export-ydpi="96" /></g></g></g></svg>
