<svg xmlns="http://www.w3.org/2000/svg" viewBox="0 0 1080 1080" fill="none">
<g transform="translate(0,1080) scale(0.1,-0.1)" fill="#FFFFFF" stroke="none">
<path d="M5378 8830 c-19 -371 -142 -741 -356 -1066 -192 -291 -474 -547 -792
-717 -266 -143 -639 -245 -910 -249 l-105 -1 130 -7 c307 -18 634 -110 901
-255 520 -283 904 -767 1059 -1332 41 -149 74 -361 76 -488 2 -87 2 -86 10 40
42 700 419 1336 1014 1710 295 186 669 305 1020 325 l130 7 -105 1 c-332 5
-755 140 -1065 340 -250 160 -490 399 -648 642 -208 322 -326 682 -346 1060
l-6 125 -7 -135z"/>
<path d="M5108 4290 c-359 -32 -663 -100 -993 -222 -156 -57 -507 -232 -658
-327 -504 -318 -920 -739 -1225 -1242 -321 -528 -522 -1196 -522 -1734 l0
-145 1019 0 1018 0 6 108 c10 190 75 428 168 613 128 256 370 521 611 668 271
165 541 241 853 241 442 0 827 -161 1145 -480 294 -293 454 -643 486 -1063 l7
-87 1020 0 1020 0 -7 152 c-54 1205 -700 2304 -1743 2967 -441 280 -942 461
-1473 531 -177 24 -573 34 -732 20z"/>
</g>
</svg>
